0
SECTION
2
HEADER
9
$INSUNITS
70
4
9
$ACADVER
1
AC1014
9
$HANDSEED
5
FFFF
0
ENDSEC
0
SECTION
2
TABLES
0
TABLE
2
VPORT
5
8
100
AcDbSymbolTable
0
ENDTAB
0
TABLE
2
LTYPE
5
5
100
AcDbSymbolTable
0
LTYPE
5
14
100
AcDbSymbolTableRecord
100
AcDbLinetypeTableRecord
2
BYBLOCK
70
0
0
LTYPE
5
15
100
AcDbSymbolTableRecord
100
AcDbLinetypeTableRecord
2
BYLAYER
70
0
0
ENDTAB
0
TABLE
2
LAYER
5
2
100
AcDbSymbolTable
70
2
0
LAYER
5
50
100
AcDbSymbolTableRecord
100
AcDbLayerTableRecord
2
0
70
0
6
CONTINUOUS
0
ENDTAB
0
TABLE
2
STYLE
5
3
100
AcDbSymbolTable
70
1
0
STYLE
5
11
100
AcDbSymbolTableRecord
100
AcDbTextStyleTableRecord
2
STANDARD
70
0
0
ENDTAB
0
TABLE
2
VIEW
5
6
100
AcDbSymbolTable
70
0
0
ENDTAB
0
TABLE
2
UCS
5
7
100
AcDbSymbolTable
70
0
0
ENDTAB
0
TABLE
2
APPID
5
9
100
AcDbSymbolTable
70
2
0
APPID
5
12
100
AcDbSymbolTableRecord
100
AcDbRegAppTableRecord
2
ACAD
70
0
0
ENDTAB
0
TABLE
2
DIMSTYLE
5
A
100
AcDbSymbolTable
70
1
0
ENDTAB
0
TABLE
2
BLOCK_RECORD
5
1
100
AcDbSymbolTable
70
1
0
BLOCK_RECORD
5
1F
100
AcDbSymbolTableRecord
100
AcDbBlockTableRecord
2
*MODEL_SPACE
0
BLOCK_RECORD
5
1B
100
AcDbSymbolTableRecord
100
AcDbBlockTableRecord
2
*PAPER_SPACE
0
ENDTAB
0
ENDSEC
0
SECTION
2
BLOCKS
0
BLOCK
5
20
100
AcDbEntity
100
AcDbBlockBegin
2
*MODEL_SPACE
0
ENDBLK
5
21
100
AcDbEntity
100
AcDbBlockEnd
0
BLOCK
5
1C
100
AcDbEntity
100
AcDbBlockBegin
2
*PAPER_SPACE
0
ENDBLK
5
1D
100
AcDbEntity
100
AcDbBlockEnd
0
ENDSEC
0
SECTION
2
ENTITIES
0
LWPOLYLINE
5
100
100
AcDbEntity
8
0
100
AcDbPolyline
90
8
70
1
43
0.0
10
-106.00000000000001
20
-110
10
106.00000000000001
20
-110
42
0.41421356237309243
10
110.00000000000001
20
-105.99999999999996
10
110
20
106
42
0.41421356237308982
10
106
20
110
10
-106
20
110
42
0.41421356237308982
10
-109.99999999999999
20
106.00000000000003
10
-110.00000000000001
20
-106
42
0.41421356237308982
0
CIRCLE
5
101
100
AcDbEntity
8
0
100
AcDbCircle
10
-104.49999999999997
20
104.5
30
0
40
1.6999999999999993
210
0
220
0
230
1
0
CIRCLE
5
102
100
AcDbEntity
8
0
100
AcDbCircle
10
104.49999999999997
20
104.5
30
0
40
1.6999999999999993
210
0
220
0
230
1
0
CIRCLE
5
103
100
AcDbEntity
8
0
100
AcDbCircle
10
-104.49999999999997
20
-104.5
30
0
40
1.6999999999999993
210
0
220
0
230
1
0
CIRCLE
5
104
100
AcDbEntity
8
0
100
AcDbCircle
10
104.49999999999997
20
-104.5
30
0
40
1.6999999999999993
210
0
220
0
230
1
0
CIRCLE
5
105
100
AcDbEntity
8
0
100
AcDbCircle
10
-94.749999999999972
20
94.750000000000028
30
0
40
1.6999999999999988
210
0
220
0
230
1
0
CIRCLE
5
106
100
AcDbEntity
8
0
100
AcDbCircle
10
94.750000000000057
20
94.75
30
0
40
1.6999999999999993
210
0
220
0
230
1
0
CIRCLE
5
107
100
AcDbEntity
8
0
100
AcDbCircle
10
94.750000000000085
20
-94.749999999999972
30
0
40
1.6999999999999993
210
0
220
0
230
1
0
CIRCLE
5
108
100
AcDbEntity
8
0
100
AcDbCircle
10
-94.749999999999915
20
-94.750000000000014
30
0
40
1.6999999999999931
210
0
220
0
230
1
0
CIRCLE
5
109
100
AcDbEntity
8
0
100
AcDbCircle
10
-85
20
85
30
0
40
1.6999999999999993
210
0
220
0
230
1
0
CIRCLE
5
110
100
AcDbEntity
8
0
100
AcDbCircle
10
85
20
85
30
0
40
1.6999999999999993
210
0
220
0
230
1
0
CIRCLE
5
111
100
AcDbEntity
8
0
100
AcDbCircle
10
-85
20
-85
30
0
40
1.6999999999999993
210
0
220
0
230
1
0
CIRCLE
5
112
100
AcDbEntity
8
0
100
AcDbCircle
10
85
20
-85
30
0
40
1.6999999999999993
210
0
220
0
230
1
0
CIRCLE
5
113
100
AcDbEntity
8
0
100
AcDbCircle
10
0
20
-104.5
30
0
40
1.7000000000000002
210
0
220
0
230
1
0
CIRCLE
5
114
100
AcDbEntity
8
0
100
AcDbCircle
10
8.5242976014677425e-14
20
-94.75
30
0
40
1.7000000000000002
210
0
220
0
230
1
0
CIRCLE
5
115
100
AcDbEntity
8
0
100
AcDbCircle
10
0
20
-85
30
0
40
1.7000000000000002
210
0
220
0
230
1
0
CIRCLE
5
116
100
AcDbEntity
8
0
100
AcDbCircle
10
-67.000429651396573
20
8.9995561477121342
30
0
40
2.25
210
0
220
0
230
1
0
CIRCLE
5
117
100
AcDbEntity
8
0
100
AcDbCircle
10
-43.000429651396573
20
8.9995561477121342
30
0
40
2.25
210
0
220
0
230
1
0
CIRCLE
5
118
100
AcDbEntity
8
0
100
AcDbCircle
10
-67.000429651396573
20
-9.0004438522878658
30
0
40
2.25
210
0
220
0
230
1
0
CIRCLE
5
119
100
AcDbEntity
8
0
100
AcDbCircle
10
-43.000429651396573
20
-9.0004438522878658
30
0
40
2.25
210
0
220
0
230
1
0
CIRCLE
5
120
100
AcDbEntity
8
0
100
AcDbCircle
10
66.999538483468257
20
52.750349771402369
30
0
40
2.2500000000000044
210
0
220
0
230
1
0
CIRCLE
5
121
100
AcDbEntity
8
0
100
AcDbCircle
10
42.99953848346825
20
52.750349771402369
30
0
40
2.2500000000000044
210
0
220
0
230
1
0
CIRCLE
5
122
100
AcDbEntity
8
0
100
AcDbCircle
10
66.999538483468257
20
34.750349771402369
30
0
40
2.2500000000000044
210
0
220
0
230
1
0
CIRCLE
5
123
100
AcDbEntity
8
0
100
AcDbCircle
10
42.99953848346825
20
34.750349771402369
30
0
40
2.2500000000000044
210
0
220
0
230
1
0
CIRCLE
5
124
100
AcDbEntity
8
0
100
AcDbCircle
10
66.999538483468257
20
-34.749650228597631
30
0
40
2.2500000000000044
210
0
220
0
230
1
0
CIRCLE
5
125
100
AcDbEntity
8
0
100
AcDbCircle
10
42.99953848346825
20
-34.749650228597631
30
0
40
2.2500000000000044
210
0
220
0
230
1
0
CIRCLE
5
126
100
AcDbEntity
8
0
100
AcDbCircle
10
42.99953848346825
20
-52.749650228597631
30
0
40
2.2500000000000044
210
0
220
0
230
1
0
CIRCLE
5
127
100
AcDbEntity
8
0
100
AcDbCircle
10
66.999538483468257
20
-52.749650228597631
30
0
40
2.2500000000000044
210
0
220
0
230
1
0
CIRCLE
5
128
100
AcDbEntity
8
0
100
AcDbCircle
10
2.25
20
9.0000001341104507
30
0
40
2.25
210
0
220
0
230
1
0
CIRCLE
5
129
100
AcDbEntity
8
0
100
AcDbCircle
10
2.25
20
-8.9999998658895493
30
0
40
2.25
210
0
220
0
230
1
0
CIRCLE
5
130
100
AcDbEntity
8
0
100
AcDbCircle
10
14.250000000000004
20
1.341104505225843e-07
30
0
40
2.2500000000000009
210
0
220
0
230
1
0
CIRCLE
5
131
100
AcDbEntity
8
0
100
AcDbCircle
10
94.350001356005663
20
33.300000506639485
30
0
40
1.7000000000000091
210
0
220
0
230
1
0
CIRCLE
5
132
100
AcDbEntity
8
0
100
AcDbCircle
10
86.250001356005654
20
33.300000506639485
30
0
40
1.7000000000000091
210
0
220
0
230
1
0
LWPOLYLINE
5
133
100
AcDbEntity
8
0
100
AcDbPolyline
90
8
70
1
43
0.0
10
24.999999463558204
20
70.000001043081284
10
-25.000000536441807
20
70.000001043081284
42
0.41421356237309581
10
-35.000000536441796
20
60.000001043081284
10
-35.000000536441803
20
35.000001043081284
42
0.41421356237309581
10
-25.000000536441807
20
25.000001043081284
10
24.999999463558193
20
25.00000104308128
42
0.41421356237309492
10
34.999999463558197
20
35.000001043081276
10
34.999999463558197
20
60.000001043081284
42
0.41421356237309581
0
LWPOLYLINE
5
134
100
AcDbEntity
8
0
100
AcDbPolyline
90
8
70
1
43
0.0
10
24.999999463558204
20
-24.999998956918716
10
-25.000000536441807
20
-24.999998956918716
42
0.4142135623730957
10
-35.000000536441803
20
-34.999998956918716
10
-35.000000536441803
20
-59.999998956918716
42
0.41421356237309592
10
-25.000000536441807
20
-69.999998956918716
10
24.999999463558211
20
-69.999998956918716
42
0.41421356237309581
10
34.999999463558204
20
-59.999998956918716
10
34.999999463558204
20
-34.999998956918709
42
0.41421356237309542
0
CIRCLE
5
135
100
AcDbEntity
8
0
100
AcDbCircle
10
-104.49999999999997
20
104.5
30
0
40
4.1000000000000014
210
0
220
0
230
1
0
CIRCLE
5
136
100
AcDbEntity
8
0
100
AcDbCircle
10
-94.750000000001506
20
94.750000000002586
30
0
40
4.1000000000000085
210
0
220
0
230
1
0
CIRCLE
5
137
100
AcDbEntity
8
0
100
AcDbCircle
10
-85
20
85
30
0
40
4.1000000000000014
210
0
220
0
230
1
0
CIRCLE
5
138
100
AcDbEntity
8
0
100
AcDbCircle
10
104.49999999999997
20
104.5
30
0
40
4.1000000000000014
210
0
220
0
230
1
0
CIRCLE
5
139
100
AcDbEntity
8
0
100
AcDbCircle
10
94.749999999999972
20
94.749999999999957
30
0
40
4.1000000000000014
210
0
220
0
230
1
0
CIRCLE
5
140
100
AcDbEntity
8
0
100
AcDbCircle
10
85
20
85
30
0
40
4.1000000000000014
210
0
220
0
230
1
0
CIRCLE
5
141
100
AcDbEntity
8
0
100
AcDbCircle
10
85
20
-85
30
0
40
4.1000000000000014
210
0
220
0
230
1
0
CIRCLE
5
142
100
AcDbEntity
8
0
100
AcDbCircle
10
94.750000000003197
20
-94.749999999996461
30
0
40
4.1000000000000014
210
0
220
0
230
1
0
CIRCLE
5
143
100
AcDbEntity
8
0
100
AcDbCircle
10
104.49999999999997
20
-104.5
30
0
40
4.1000000000000014
210
0
220
0
230
1
0
CIRCLE
5
144
100
AcDbEntity
8
0
100
AcDbCircle
10
-85
20
-85
30
0
40
4.0999999999999934
210
0
220
0
230
1
0
CIRCLE
5
145
100
AcDbEntity
8
0
100
AcDbCircle
10
-94.749999999999872
20
-94.750000000000014
30
0
40
4.1000000000000014
210
0
220
0
230
1
0
CIRCLE
5
146
100
AcDbEntity
8
0
100
AcDbCircle
10
-104.49999999999997
20
-104.5
30
0
40
4.1000000000000014
210
0
220
0
230
1
0
CIRCLE
5
147
100
AcDbEntity
8
0
100
AcDbCircle
10
0
20
-85
30
0
40
4.0999999999999996
210
0
220
0
230
1
0
CIRCLE
5
148
100
AcDbEntity
8
0
100
AcDbCircle
10
8.5242976014677425e-14
20
-94.749999999999972
30
0
40
4.0999999999999996
210
0
220
0
230
1
0
CIRCLE
5
149
100
AcDbEntity
8
0
100
AcDbCircle
10
0
20
-104.5
30
0
40
4.0999999999999996
210
0
220
0
230
1
0
CIRCLE
5
150
100
AcDbEntity
8
0
100
AcDbCircle
10
7.6200000000000001
20
104.5
30
0
40
1.7000000000000004
210
0
220
0
230
1
0
CIRCLE
5
151
100
AcDbEntity
8
0
100
AcDbCircle
10
-7.6200000000000001
20
104.5
30
0
40
1.7000000000000004
210
0
220
0
230
1
0
CIRCLE
5
152
100
AcDbEntity
8
0
100
AcDbCircle
10
59.870000000000005
20
-104.5
30
0
40
1.6999999999999993
210
0
220
0
230
1
0
CIRCLE
5
153
100
AcDbEntity
8
0
100
AcDbCircle
10
44.63000000000001
20
-104.5
30
0
40
1.6999999999999993
210
0
220
0
230
1
0
CIRCLE
5
154
100
AcDbEntity
8
0
100
AcDbCircle
10
-65.000429651396558
20
53.750349771402369
30
0
40
1.6999999999999984
210
0
220
0
230
1
0
CIRCLE
5
155
100
AcDbEntity
8
0
100
AcDbCircle
10
-45.000429651396558
20
53.750349771402369
30
0
40
1.6999999999999984
210
0
220
0
230
1
0
CIRCLE
5
156
100
AcDbEntity
8
0
100
AcDbCircle
10
-65.000429651396558
20
33.750349771402369
30
0
40
1.6999999999999984
210
0
220
0
230
1
0
CIRCLE
5
157
100
AcDbEntity
8
0
100
AcDbCircle
10
-45.000429651396558
20
33.750349771402369
30
0
40
1.6999999999999984
210
0
220
0
230
1
0
CIRCLE
5
158
100
AcDbEntity
8
0
100
AcDbCircle
10
-65.000429651396558
20
-33.749650228597631
30
0
40
1.6999999999999984
210
0
220
0
230
1
0
CIRCLE
5
159
100
AcDbEntity
8
0
100
AcDbCircle
10
-65.000429651396558
20
-53.749650228597631
30
0
40
1.6999999999999984
210
0
220
0
230
1
0
CIRCLE
5
160
100
AcDbEntity
8
0
100
AcDbCircle
10
-45.000429651396558
20
-53.749650228597631
30
0
40
1.6999999999999984
210
0
220
0
230
1
0
CIRCLE
5
161
100
AcDbEntity
8
0
100
AcDbCircle
10
-45.000429651396558
20
-33.749650228597631
30
0
40
1.6999999999999984
210
0
220
0
230
1
0
CIRCLE
5
162
100
AcDbEntity
8
0
100
AcDbCircle
10
65.099570348603422
20
-10.000443852287866
30
0
40
1.6999999999999984
210
0
220
0
230
1
0
CIRCLE
5
163
100
AcDbEntity
8
0
100
AcDbCircle
10
45.099570348603422
20
9.9995561477121342
30
0
40
1.6999999999999984
210
0
220
0
230
1
0
CIRCLE
5
164
100
AcDbEntity
8
0
100
AcDbCircle
10
45.099570348603422
20
-10.000443852287866
30
0
40
1.6999999999999984
210
0
220
0
230
1
0
CIRCLE
5
165
100
AcDbEntity
8
0
100
AcDbCircle
10
65.099570348603422
20
9.9995561477121342
30
0
40
1.6999999999999984
210
0
220
0
230
1
0
ENDSEC
0
SECTION
2
OBJECTS
0
DICTIONARY
5
C
100
AcDbDictionary
3
ACAD_GROUP
350
D
3
ACAD_MLINESTYLE
350
17
0
DICTIONARY
5
D
100
AcDbDictionary
0
DICTIONARY
5
1A
330
C
100
AcDbDictionary
0
DICTIONARY
5
17
100
AcDbDictionary
0
ENDSEC
0
EOF
